<?xml version="1.0" encoding="UTF-8"?>
<svg width="486px" height="207px" viewBox="0 0 486 207" version="1.1" xmlns="http://www.w3.org/2000/svg" xmlns:xlink="http://www.w3.org/1999/xlink">
    <title>Combined Shape</title>
    <defs>
        <linearGradient x1="94.2836708%" y1="44.2868478%" x2="6.48107394%" y2="55.7131522%" id="linearGradient-1">
            <stop stop-color="#DD2222" offset="0%"></stop>
            <stop stop-color="#B90F0F" offset="100%"></stop>
        </linearGradient>
        <path d="M696.203729,226.022803 C703.810829,226.022803 710.772812,228.159088 717.089679,232.434058 L707.261843,249.517136 C704.424769,246.442326 700.681174,244.906121 696.02866,244.906121 C692.313844,244.906121 689.109844,246.142286 686.419061,248.617016 C683.728277,251.091746 682.382885,254.056141 682.382885,257.510201 C682.382885,260.964262 683.728277,263.928657 686.419061,266.403387 C689.109844,268.878117 692.342622,270.114282 696.117394,270.114282 C700.124791,270.114282 704.057844,268.402854 707.918951,264.975197 L718.495026,281.621416 C711.561821,286.539672 704.132188,289 696.203729,289 C686.668474,289 678.521778,285.92519 671.763642,279.77557 C665.007904,273.62835 661.628836,266.206561 661.628836,257.510201 C661.628836,248.785038 665.000709,241.356047 671.742058,235.22323 C678.485805,229.088012 686.639695,226.022803 696.203729,226.022803 Z M801.401241,227.471156 L801.401241,287.461395 L781.085727,287.461395 L781.085727,227.471156 L801.401241,227.471156 Z M742.110132,227.472596 L742.110132,247.892119 L752.904443,247.892119 L752.904443,227.472596 L772.034909,227.472596 L772.034909,287.461395 L752.904443,287.461395 L752.904443,265.239232 L742.110132,265.239232 L742.110132,287.461395 L722.979666,287.461395 L722.979666,227.472596 L742.110132,227.472596 Z M826.200723,227.472596 L842.743527,250.570876 L842.743527,227.472596 L861.610191,227.472596 L861.610191,287.461395 L845.726892,287.461395 L829.272821,264.449527 L829.272821,287.461395 L810.406158,287.461395 L810.406158,227.472596 L826.200723,227.472596 Z M905.89301,227.472596 L905.89301,243.194693 L889.702741,243.194693 L889.702741,249.869983 L905.58604,249.869983 L905.58604,264.799973 L889.702741,264.799973 L889.702741,271.739299 L906.509348,271.739299 L906.509348,287.461395 L870.572275,287.461395 L870.572275,227.472596 L905.89301,227.472596 Z M553.290014,227.472596 L568.952678,250.309241 L584.485839,227.472596 L600.369137,227.472596 L600.369137,287.461395 L581.152337,287.461395 L581.152337,265.853714 L568.952678,283.860915 L556.623516,265.853714 L556.623516,287.461395 L537.49305,287.461395 L537.49305,227.472596 L553.290014,227.472596 Z M641.932394,227.472596 L664.662563,287.461395 L645.793501,287.461395 L643.81978,282.060675 L625.698958,282.060675 L623.679671,287.461395 L604.813008,287.461395 L627.583946,227.472596 L641.932394,227.472596 Z M634.737785,258.299907 L630.699211,268.842112 L638.817129,268.842112 L634.737785,258.299907 Z M912.711101,145 C920.315803,145 927.277786,147.136285 933.597051,151.411255 L923.766817,168.494333 C920.929743,165.421923 917.186148,163.883318 912.536032,163.883318 C908.818817,163.883318 905.617216,165.121883 902.926433,167.594213 C900.235649,170.068943 898.887859,173.033338 898.887859,176.487398 C898.887859,179.943859 900.235649,182.908254 902.926433,185.380584 C905.617216,187.855314 908.849994,189.091479 912.622367,189.091479 C916.629765,189.091479 920.565216,187.380051 924.426323,183.954794 L935,200.598613 C928.066795,205.516869 920.637162,207.977197 912.711101,207.977197 C903.173448,207.977197 895.026752,204.902387 888.271014,198.755167 C881.512878,192.605547 878.13381,185.183758 878.13381,176.487398 C878.13381,167.762235 881.505683,160.333244 888.24943,154.200427 C894.990779,148.067609 903.144669,145 912.711101,145 Z M666.725017,145 C671.492645,145 675.924524,145.964929 680.018257,147.897186 C681.598673,148.629284 683.486058,149.771836 685.678016,151.324843 L674.886102,166.869316 C672.456723,164.879451 669.794717,163.883318 666.900086,163.883318 C663.389117,163.883318 660.398558,165.107481 657.92601,167.551007 C655.453463,169.996933 654.218388,172.97573 654.218388,176.487398 C654.218388,179.943859 655.446268,182.908254 657.904427,185.380584 C660.362585,187.855314 663.33156,189.091479 666.811353,189.091479 C670.701238,189.091479 673.993971,187.466462 676.684755,184.216429 L671.286399,184.216429 L671.286399,171.612348 L694.366706,171.612348 L694.366706,191.595013 C691.412119,196.777304 687.529429,200.80264 682.716235,203.673423 C677.90544,206.541806 672.603013,207.977197 666.811353,207.977197 C658.122663,207.977197 650.707419,204.895186 644.565621,198.731164 C638.421425,192.569543 635.351725,185.154954 635.351725,176.487398 C635.351725,167.822243 638.421425,160.407654 644.565621,154.243632 C650.707419,148.082011 658.093885,145 666.725017,145 Z M844.63571,146.449793 L844.63571,162.083078 L833.49126,162.083078 L833.49126,206.438592 L813.744456,206.438592 L813.744456,162.083078 L802.68874,162.083078 L802.68874,146.449793 L844.63571,146.449793 Z M870.666141,146.448353 L870.666141,206.438592 L850.350627,206.438592 L850.350627,146.448353 L870.666141,146.448353 Z M524.796963,146.449793 L540.462026,169.286438 L555.995187,146.449793 L571.878485,146.449793 L571.878485,206.438592 L552.659286,206.438592 L552.659286,184.833311 L540.462026,202.838112 L528.130466,184.833311 L528.130466,206.438592 L509,206.438592 L509,146.449793 L524.796963,146.449793 Z M613.439344,146.449793 L636.169512,206.438592 L617.302849,206.438592 L615.32673,201.037872 L597.205908,201.037872 L595.186621,206.438592 L576.319957,206.438592 L599.093293,146.449793 L613.439344,146.449793 Z M717.677239,146.449793 L734.217645,169.550473 L734.217645,146.449793 L753.086707,146.449793 L753.086707,206.438592 L737.20101,206.438592 L720.746939,183.426724 L720.746939,206.438592 L701.880276,206.438592 L701.880276,146.449793 L717.677239,146.449793 Z M797.369526,146.449793 L797.369526,162.17189 L781.176859,162.17189 L781.176859,168.84718 L797.062556,168.84718 L797.062556,183.77717 L781.176859,183.77717 L781.176859,190.716496 L797.983466,190.716496 L797.983466,206.438592 L762.046393,206.438592 L762.046393,146.449793 L797.369526,146.449793 Z M606.244735,177.279504 L602.208559,187.819309 L610.324078,187.819309 L606.244735,177.279504 Z" id="path-2"></path>
        <filter x="-15.0%" y="-22.2%" width="130.0%" height="188.9%" filterUnits="objectBoundingBox" id="filter-3">
            <feOffset dx="0" dy="32" in="SourceAlpha" result="shadowOffsetOuter1"></feOffset>
            <feGaussianBlur stdDeviation="16" in="shadowOffsetOuter1" result="shadowBlurOuter1"></feGaussianBlur>
            <feColorMatrix values="0 0 0 0 0   0 0 0 0 0   0 0 0 0 0  0 0 0 0.12 0" type="matrix" in="shadowBlurOuter1" result="shadowMatrixOuter1"></feColorMatrix>
            <feOffset dx="0" dy="16" in="SourceAlpha" result="shadowOffsetOuter2"></feOffset>
            <feGaussianBlur stdDeviation="8" in="shadowOffsetOuter2" result="shadowBlurOuter2"></feGaussianBlur>
            <feColorMatrix values="0 0 0 0 0   0 0 0 0 0   0 0 0 0 0  0 0 0 0.12 0" type="matrix" in="shadowBlurOuter2" result="shadowMatrixOuter2"></feColorMatrix>
            <feOffset dx="0" dy="8" in="SourceAlpha" result="shadowOffsetOuter3"></feOffset>
            <feGaussianBlur stdDeviation="4" in="shadowOffsetOuter3" result="shadowBlurOuter3"></feGaussianBlur>
            <feColorMatrix values="0 0 0 0 0   0 0 0 0 0   0 0 0 0 0  0 0 0 0.12 0" type="matrix" in="shadowBlurOuter3" result="shadowMatrixOuter3"></feColorMatrix>
            <feOffset dx="0" dy="4" in="SourceAlpha" result="shadowOffsetOuter4"></feOffset>
            <feGaussianBlur stdDeviation="2" in="shadowOffsetOuter4" result="shadowBlurOuter4"></feGaussianBlur>
            <feColorMatrix values="0 0 0 0 0   0 0 0 0 0   0 0 0 0 0  0 0 0 0.12 0" type="matrix" in="shadowBlurOuter4" result="shadowMatrixOuter4"></feColorMatrix>
            <feOffset dx="0" dy="2" in="SourceAlpha" result="shadowOffsetOuter5"></feOffset>
            <feGaussianBlur stdDeviation="1" in="shadowOffsetOuter5" result="shadowBlurOuter5"></feGaussianBlur>
            <feColorMatrix values="0 0 0 0 0   0 0 0 0 0   0 0 0 0 0  0 0 0 0.12 0" type="matrix" in="shadowBlurOuter5" result="shadowMatrixOuter5"></feColorMatrix>
            <feOffset dx="0" dy="1" in="SourceAlpha" result="shadowOffsetOuter6"></feOffset>
            <feGaussianBlur stdDeviation="0.5" in="shadowOffsetOuter6" result="shadowBlurOuter6"></feGaussianBlur>
            <feColorMatrix values="0 0 0 0 0   0 0 0 0 0   0 0 0 0 0  0 0 0 0.12 0" type="matrix" in="shadowBlurOuter6" result="shadowMatrixOuter6"></feColorMatrix>
            <feMerge>
                <feMergeNode in="shadowMatrixOuter1"></feMergeNode>
                <feMergeNode in="shadowMatrixOuter2"></feMergeNode>
                <feMergeNode in="shadowMatrixOuter3"></feMergeNode>
                <feMergeNode in="shadowMatrixOuter4"></feMergeNode>
                <feMergeNode in="shadowMatrixOuter5"></feMergeNode>
                <feMergeNode in="shadowMatrixOuter6"></feMergeNode>
            </feMerge>
        </filter>
    </defs>
    <g id="Portfolio-|-Desktop" stroke="none" stroke-width="1" fill="none" fill-rule="evenodd">
        <g id="Combined-Shape" transform="translate(-477.000000, -145.000000)">
            <use fill="black" fill-opacity="1" filter="url(#filter-3)" xlink:href="#path-2"></use>
            <use fill="url(#linearGradient-1)" fill-rule="evenodd" xlink:href="#path-2"></use>
        </g>
    </g>
</svg>